<svg width="48" height="49" viewBox="0 0 48 49" fill="none" xmlns="http://www.w3.org/2000/svg">
<g clip-path="url(#clip0_2_8948)">
<path fill-rule="evenodd" clip-rule="evenodd" d="M24 14.5C18.47 14.5 14 18.97 14 24.5C14 30.03 18.47 34.5 24 34.5C29.53 34.5 34 30.03 34 24.5C34 18.97 29.53 14.5 24 14.5ZM24 32.5C19.59 32.5 16 28.91 16 24.5C16 20.09 19.59 16.5 24 16.5C28.41 16.5 32 20.09 32 24.5C32 28.91 28.41 32.5 24 32.5ZM24 23.09L27.59 19.5L29 20.91L25.41 24.5L29 28.09L27.59 29.5L24 25.91L20.41 29.5L19 28.09L22.59 24.5L19 20.91L20.41 19.5L24 23.09Z" fill="#CAC4D0"/>
</g>
<defs>
<clipPath id="clip0_2_8948">
<rect x="4" y="4.5" width="40" height="40" rx="20" fill="white"/>
</clipPath>
</defs>
</svg>
